<?xml version="1.0" encoding="UTF-8" standalone="no"?>
<svg
   xmlns:dc="http://purl.org/dc/elements/1.1/"
   xmlns:cc="http://creativecommons.org/ns#"
   xmlns:rdf="http://www.w3.org/1999/02/22-rdf-syntax-ns#"
   xmlns:svg="http://www.w3.org/2000/svg"
   xmlns="http://www.w3.org/2000/svg"
   version="1.1"
   id="svg11870"
   viewBox="0 0 538.58267 401.73837"
   height="11.33795cm"
   width="15.2cm">
  <defs
     id="defs11872" />
  <metadata
     id="metadata11875">
    <rdf:RDF>
      <cc:Work
         rdf:about="">
        <dc:format>image/svg+xml</dc:format>
        <dc:type
           rdf:resource="http://purl.org/dc/dcmitype/StillImage" />
        <dc:title></dc:title>
      </cc:Work>
    </rdf:RDF>
  </metadata>
  <g
     transform="translate(-101.5734,-257.85642)"
     id="layer1">
    <g
       transform="matrix(12.485959,0,0,12.485959,-3838.6872,-13929.621)"
       id="g12472">
      <g
         id="g10365"
         transform="matrix(1.25,0,0,-1.25,318.72411,1149.4121)">
        <path
           d="M 0,0 -1.777,0 C -1.631,-3.305 1.459,-6.2 6.03,-7.845 2.466,-6.061 0.114,-3.213 0,0 M 31.247,0 29.47,0 C 29.355,-3.213 27.004,-6.06 23.44,-7.845 28.011,-6.2 31.1,-3.305 31.247,0 m -1.777,0.491 1.777,0 C 31.1,3.797 28.011,6.692 23.44,8.337 27.004,6.553 29.356,3.705 29.47,0.491 m -31.247,0 1.777,0 C 0.114,3.705 2.466,6.553 6.03,8.337 1.459,6.693 -1.631,3.797 -1.777,0.491 m 16.512,9.792 c 9.378,0 17.027,-4.509 17.027,-10.037 0,-5.528 -7.649,-10.038 -17.027,-10.038 -9.378,0 -17.027,4.51 -17.027,10.038 0,5.528 7.649,10.037 17.027,10.037 M 10.273,-8.802 C 4.715,-7.568 0.656,-4.099 0.5,0 l 3.92,0 c 0.096,-3.871 2.465,-7.211 5.853,-8.802 M 28.97,0 c -0.156,-4.099 -4.215,-7.568 -9.774,-8.802 3.388,1.591 5.758,4.931 5.854,8.802 l 3.92,0 z m -24.55,0.491 -3.92,0 c 0.156,4.1 4.215,7.57 9.774,8.803 C 6.885,7.703 4.516,4.363 4.42,0.491 M 19.196,9.294 C 24.755,8.061 28.814,4.591 28.97,0.491 l -3.92,0 C 24.954,4.363 22.584,7.703 19.196,9.294 M 12.578,-9.049 C 8.288,-8.106 5.047,-4.419 4.932,0 l 4.081,0 c 0.056,-4.086 1.517,-7.579 3.565,-9.049 M 24.538,0 c -0.116,-4.419 -3.356,-8.106 -7.646,-9.049 2.047,1.47 3.508,4.963 3.565,9.049 l 4.081,0 z m -15.525,0.491 -4.081,0 C 5.047,4.911 8.288,8.6 12.578,9.541 10.531,8.071 9.069,4.578 9.013,0.491 m 7.879,9.05 c 4.29,-0.941 7.53,-4.63 7.646,-9.05 l -4.081,0 C 20.4,4.577 18.939,8.071 16.892,9.541 M 14.98,0 14.979,-9.271 c 2.719,0.23 4.906,4.285 4.976,9.271 L 14.98,0 Z m 0,9.763 0,-9.272 4.975,0 c -0.07,4.987 -2.257,9.04 -4.975,9.272 m -0.49,-9.272 0,9.272 C 11.772,9.532 9.585,5.478 9.515,0.491 l 4.975,0 z M 14.489,-9.271 14.49,0 9.515,0 c 0.07,-4.985 2.256,-9.04 4.974,-9.271"
           style="fill:#0071bc;fill-opacity:1;fill-rule:evenodd;stroke:none"
           id="path10367" />
      </g>
      <g
         id="g10369"
         transform="matrix(1.25,0,0,-1.25,323.19673,1142.7338)">
        <path
           d="m 0,0 c 0.346,0 0.715,-0.024 0.805,-0.07 0.091,-0.048 0.15,-0.051 0.299,-0.317 l 0.079,-0.231 c 0.588,-2.486 1.272,-5.522 1.86,-8.008 0.135,-0.415 0.195,-0.467 0.301,-0.603 0.22,-0.167 0.497,-0.167 0.697,-0.167 l 14.127,0 c 0.194,0.013 0.563,0.114 0.73,0.229 0.128,0.116 0.258,0.285 0.319,0.542 0.588,2.484 1.343,5.518 1.93,8.003 0.017,0.07 0.039,0.156 0.07,0.218 0.051,0.098 0.181,0.299 0.346,0.359 0.166,0.038 0.687,0.04 0.75,0.045 0,-3.482 -0.009,-6.737 -0.009,-10.219 -0.046,-0.307 -0.281,-0.643 -0.473,-0.738 -0.37,-0.18 -0.716,-0.277 -1.201,-0.328 -6.295,-0.005 -12.589,-0.011 -18.884,-0.016 -0.564,0.036 -1.054,0.173 -1.374,0.326 -0.181,0.09 -0.357,0.428 -0.372,0.745 L 0,0 Z"
           style="fill:#ffffff;fill-opacity:1;fill-rule:evenodd;stroke:none"
           id="path10371" />
      </g>
      <g
         id="g10373"
         transform="matrix(1.25,0,0,-1.25,325.45873,1141.7461)">
        <path
           d="M 0,0 18.651,0 C 17.991,-2.716 17.387,-5.85 16.727,-8.565 16.659,-8.74 16.599,-8.854 16.482,-9.021 16.372,-9.164 16.169,-9.28 15.978,-9.28 l -13.433,0 C 2.333,-9.247 2.299,-9.273 2.097,-9.108 1.902,-8.92 1.849,-8.798 1.792,-8.557 L 0,0 Z"
           style="fill:#ffffff;fill-opacity:1;fill-rule:evenodd;stroke:none"
           id="path10375" />
      </g>
      <g
         id="g10377"
         transform="matrix(1.25,0,0,-1.25,323.19673,1142.7338)">
        <path
           d="m 0,0 c 0.346,0 0.715,-0.024 0.805,-0.07 0.091,-0.048 0.15,-0.051 0.299,-0.317 l 0.079,-0.231 c 0.588,-2.486 1.272,-5.522 1.86,-8.008 0.135,-0.415 0.195,-0.467 0.301,-0.603 0.22,-0.167 0.497,-0.167 0.697,-0.167 l 14.127,0 c 0.194,0.013 0.563,0.114 0.73,0.229 0.128,0.116 0.258,0.285 0.319,0.542 0.588,2.484 1.343,5.518 1.93,8.003 0.017,0.07 0.039,0.156 0.07,0.218 0.051,0.098 0.181,0.299 0.346,0.359 0.166,0.038 0.687,0.04 0.75,0.045 0,-3.482 -0.009,-6.737 -0.009,-10.219 -0.046,-0.307 -0.281,-0.643 -0.473,-0.738 -0.37,-0.18 -0.716,-0.277 -1.201,-0.328 -6.295,-0.005 -12.589,-0.011 -18.884,-0.016 -0.564,0.036 -1.054,0.173 -1.374,0.326 -0.181,0.09 -0.357,0.428 -0.372,0.745 L 0,0 Z"
           style="fill:#000000;fill-opacity:1;fill-rule:evenodd;stroke:none"
           id="path10379" />
      </g>
      <g
         id="g10381"
         transform="matrix(1.25,0,0,-1.25,325.45873,1141.7461)">
        <path
           d="M 0,0 18.651,0 C 17.991,-2.716 17.387,-5.85 16.727,-8.565 16.659,-8.74 16.599,-8.854 16.482,-9.021 16.372,-9.164 16.169,-9.28 15.978,-9.28 l -13.433,0 C 2.333,-9.247 2.299,-9.273 2.097,-9.108 1.902,-8.92 1.849,-8.798 1.792,-8.557 L 0,0 Z"
           style="fill:#000000;fill-opacity:1;fill-rule:evenodd;stroke:none"
           id="path10383" />
      </g>
      <g
         id="g10385"
         transform="matrix(1.25,0,0,-1.25,356.45536,1168.161)">
        <path
           d="m 0,0 0.286,0.662 c -0.61,0.013 -1.276,0.103 -1.806,0.387 -0.461,0.247 -0.755,0.612 -0.755,1.127 0,0.273 0.108,0.5 0.353,0.647 0.278,0.168 0.698,0.198 1.02,0.198 l 1.108,0 -0.292,0.661 -1.204,0 c -0.614,0 -1.353,-0.088 -1.834,-0.488 -0.322,-0.266 -0.455,-0.615 -0.455,-1.018 0,-0.68 0.307,-1.199 0.895,-1.581 C -1.971,0.132 -1.061,0 -0.214,0 L 0,0 Z"
           style="fill:#000000;fill-opacity:1;fill-rule:evenodd;stroke:none"
           id="path10387" />
      </g>
      <g
         id="g10389"
         transform="matrix(1.25,0,0,-1.25,351.14111,1168.161)">
        <path
           d="m 0,0 0,3.682 -1.41,0 0,-1.434 -1.974,1.434 -1.408,0 0,-3.682 1.412,0 0.02,2.581 L -1.41,1.092 -1.41,0 0,0 Z"
           style="fill:#000000;fill-opacity:1;fill-rule:evenodd;stroke:none"
           id="path10391" />
      </g>
      <path
         d="m 344.11248,1163.558 -1.7625,0 0,4.6025 1.7625,0 0,-4.6025 z"
         style="fill:#000000;fill-opacity:1;fill-rule:evenodd;stroke:none"
         id="path10393" />
      <g
         id="g10395"
         transform="matrix(1.25,0,0,-1.25,341.58111,1163.5589)">
        <path
           d="m 0,0 -3.643,0 -0.284,-0.66 1.934,0 -2.16,-3.022 3.837,0 0.284,0.661 -2.128,0 L 0,0 Z"
           style="fill:#000000;fill-opacity:1;fill-rule:evenodd;stroke:none"
           id="path10397" />
      </g>
      <g
         id="g10399"
         transform="matrix(1.25,0,0,-1.25,335.85361,1163.5589)">
        <path
           d="m 0,0 -3.643,0 -0.285,-0.66 1.935,0 -2.16,-3.022 3.836,0 0.285,0.661 -2.129,0 L 0,0 Z"
           style="fill:#000000;fill-opacity:1;fill-rule:evenodd;stroke:none"
           id="path10401" />
      </g>
      <g
         id="g10403"
         transform="matrix(1.25,0,0,-1.25,329.90748,1168.161)">
        <path
           d="m 0,0 0,3.026 -1.411,-0.027 0,-1.018 -1.899,0 0.051,0.082 c 0.149,0.233 0.343,0.472 0.591,0.617 0.492,0.285 1.201,0.341 1.764,0.341 l 0.903,0.009 -0.011,0.652 -0.785,0 C -1.356,3.682 -1.96,3.671 -2.514,3.586 -3.018,3.509 -3.531,3.363 -3.962,3.095 -4.295,2.887 -4.551,2.613 -4.704,2.262 -4.836,1.955 -4.879,1.611 -4.879,1.282 c 0,-0.338 0.09,-0.659 0.245,-0.962 l 0.196,-0.323 1.514,-0.001 C -3.069,0.157 -3.151,0.268 -3.253,0.456 -3.367,0.667 -3.43,0.894 -3.43,1.131 L -1.411,1.132 -1.411,0 0,0 Z"
           style="fill:#000000;fill-opacity:1;fill-rule:evenodd;stroke:none"
           id="path10405" />
      </g>
      <g
         id="g10407"
         transform="matrix(1.25,0,0,-1.25,322.92023,1163.5589)">
        <path
           d="m 0,0 -1.554,0 -1.384,-1.647 1.58,-2.035 1.667,0 -1.705,2.076 L 0,0 Z"
           style="fill:#000000;fill-opacity:1;fill-rule:evenodd;stroke:none"
           id="path10409" />
      </g>
      <path
         d="m 319.23623,1163.558 -1.76375,0 0,4.6025 1.76375,0 0,-4.6025 z"
         style="fill:#000000;fill-opacity:1;fill-rule:evenodd;stroke:none"
         id="path10411" />
      <path
         d="m 328.14498,1164.3205 1.76375,0 0,0.1563 -1.76375,0 0,-0.1563 z"
         style="fill:#000000;fill-opacity:1;fill-rule:evenodd;stroke:none"
         id="path10413" />
    </g>
  </g>
</svg>
