<?xml version="1.0" encoding="UTF-8"?> <svg xmlns="http://www.w3.org/2000/svg" width="302" height="100" viewBox="0 0 302 100" fill="none"><path d="M126.96 42C126.667 42 126.427 41.9067 126.24 41.72C126.053 41.5333 125.96 41.2933 125.96 41V15C125.96 14.7067 126.053 14.4667 126.24 14.28C126.427 14.0933 126.667 14 126.96 14H137C139.667 14 141.893 14.4267 143.68 15.28C145.467 16.1067 146.827 17.3333 147.76 18.96C148.72 20.56 149.227 22.5467 149.28 24.92C149.307 26.0933 149.32 27.12 149.32 28C149.32 28.88 149.307 29.8933 149.28 31.04C149.2 33.52 148.707 35.5733 147.8 37.2C146.893 38.8267 145.56 40.04 143.8 40.84C142.04 41.6133 139.84 42 137.2 42H126.96ZM132.32 36.84H137C138.333 36.84 139.427 36.64 140.28 36.24C141.133 35.84 141.76 35.2133 142.16 34.36C142.587 33.48 142.813 32.3467 142.84 30.96C142.867 30.1867 142.88 29.4933 142.88 28.88C142.907 28.2667 142.907 27.6533 142.88 27.04C142.88 26.4267 142.867 25.7467 142.84 25C142.787 23 142.267 21.5333 141.28 20.6C140.32 19.64 138.827 19.16 136.8 19.16H132.32V36.84ZM154.839 42C154.573 42 154.346 41.9067 154.159 41.72C153.973 41.5333 153.879 41.2933 153.879 41V22.2C153.879 21.9067 153.973 21.6667 154.159 21.48C154.346 21.2933 154.573 21.2 154.839 21.2H158.839C159.133 21.2 159.373 21.2933 159.559 21.48C159.746 21.6667 159.839 21.9067 159.839 22.2V41C159.839 41.2933 159.746 41.5333 159.559 41.72C159.373 41.9067 159.133 42 158.839 42H154.839ZM154.719 18C154.453 18 154.226 17.9067 154.039 17.72C153.853 17.5333 153.759 17.2933 153.759 17V13.8C153.759 13.5067 153.853 13.2667 154.039 13.08C154.226 12.8667 154.453 12.76 154.719 12.76H158.919C159.213 12.76 159.453 12.8667 159.639 13.08C159.853 13.2667 159.959 13.5067 159.959 13.8V17C159.959 17.2933 159.853 17.5333 159.639 17.72C159.453 17.9067 159.213 18 158.919 18H154.719ZM174.616 50.8C172.643 50.8 171.003 50.5333 169.696 50C168.389 49.4933 167.349 48.8667 166.576 48.12C165.829 47.4 165.296 46.68 164.976 45.96C164.656 45.24 164.483 44.68 164.456 44.28C164.429 43.9867 164.523 43.7467 164.736 43.56C164.949 43.3733 165.189 43.28 165.456 43.28H169.736C169.976 43.28 170.176 43.3333 170.336 43.44C170.523 43.5733 170.669 43.7867 170.776 44.08C170.909 44.4 171.096 44.7333 171.336 45.08C171.576 45.4533 171.936 45.76 172.416 46C172.923 46.24 173.589 46.36 174.416 46.36C175.349 46.36 176.123 46.2267 176.736 45.96C177.349 45.6933 177.803 45.24 178.096 44.6C178.416 43.96 178.576 43.0933 178.576 42V39.32C177.936 40.0133 177.123 40.5867 176.136 41.04C175.176 41.4933 173.989 41.72 172.576 41.72C171.189 41.72 169.963 41.5067 168.896 41.08C167.856 40.6267 166.989 40 166.296 39.2C165.603 38.3733 165.069 37.3867 164.696 36.24C164.323 35.0933 164.109 33.8 164.056 32.36C164.029 31.64 164.029 30.9333 164.056 30.24C164.109 28.8533 164.323 27.5867 164.696 26.44C165.069 25.2933 165.603 24.3067 166.296 23.48C166.989 22.6267 167.856 21.9733 168.896 21.52C169.963 21.04 171.189 20.8 172.576 20.8C174.043 20.8 175.296 21.08 176.336 21.64C177.376 22.2 178.229 22.8933 178.896 23.72V22.2C178.896 21.9333 178.989 21.7067 179.176 21.52C179.363 21.3067 179.589 21.2 179.856 21.2H183.776C184.043 21.2 184.269 21.3067 184.456 21.52C184.669 21.7067 184.776 21.9333 184.776 22.2L184.816 41.44C184.816 43.44 184.429 45.1333 183.656 46.52C182.883 47.9067 181.736 48.96 180.216 49.68C178.723 50.4267 176.856 50.8 174.616 50.8ZM174.416 37.04C175.376 37.04 176.149 36.8267 176.736 36.4C177.349 35.9467 177.803 35.3867 178.096 34.72C178.389 34.0267 178.549 33.3067 178.576 32.56C178.603 32.2667 178.616 31.8533 178.616 31.32C178.616 30.76 178.603 30.3333 178.576 30.04C178.549 29.2933 178.389 28.5867 178.096 27.92C177.803 27.2267 177.349 26.6667 176.736 26.24C176.149 25.8133 175.376 25.6 174.416 25.6C173.403 25.6 172.603 25.8267 172.016 26.28C171.429 26.7067 171.003 27.28 170.736 28C170.469 28.72 170.309 29.5067 170.256 30.36C170.229 31 170.229 31.6267 170.256 32.24C170.309 33.12 170.469 33.92 170.736 34.64C171.003 35.36 171.429 35.9467 172.016 36.4C172.603 36.8267 173.403 37.04 174.416 37.04ZM190.816 42C190.549 42 190.323 41.9067 190.136 41.72C189.949 41.5333 189.856 41.2933 189.856 41V22.2C189.856 21.9067 189.949 21.6667 190.136 21.48C190.323 21.2933 190.549 21.2 190.816 21.2H194.816C195.109 21.2 195.349 21.2933 195.536 21.48C195.723 21.6667 195.816 21.9067 195.816 22.2V41C195.816 41.2933 195.723 41.5333 195.536 41.72C195.349 41.9067 195.109 42 194.816 42H190.816ZM190.696 18C190.429 18 190.203 17.9067 190.016 17.72C189.829 17.5333 189.736 17.2933 189.736 17V13.8C189.736 13.5067 189.829 13.2667 190.016 13.08C190.203 12.8667 190.429 12.76 190.696 12.76H194.896C195.189 12.76 195.429 12.8667 195.616 13.08C195.829 13.2667 195.936 13.5067 195.936 13.8V17C195.936 17.2933 195.829 17.5333 195.616 17.72C195.429 17.9067 195.189 18 194.896 18H190.696ZM210.833 42C209.179 42 207.766 41.7333 206.593 41.2C205.419 40.64 204.526 39.7867 203.913 38.64C203.326 37.4933 203.033 36.0533 203.033 34.32V25.92H199.913C199.619 25.92 199.379 25.8267 199.193 25.64C199.006 25.4533 198.913 25.2133 198.913 24.92V22.2C198.913 21.9067 199.006 21.6667 199.193 21.48C199.379 21.2933 199.619 21.2 199.913 21.2H203.033V14.6C203.033 14.3067 203.126 14.0667 203.312 13.88C203.526 13.6933 203.766 13.6 204.033 13.6H207.953C208.246 13.6 208.486 13.6933 208.673 13.88C208.859 14.0667 208.953 14.3067 208.953 14.6V21.2H213.953C214.219 21.2 214.446 21.2933 214.633 21.48C214.819 21.6667 214.913 21.9067 214.913 22.2V24.92C214.913 25.2133 214.819 25.4533 214.633 25.64C214.446 25.8267 214.219 25.92 213.953 25.92H208.953V33.84C208.953 34.8533 209.126 35.6533 209.473 36.24C209.846 36.8 210.486 37.08 211.393 37.08H214.313C214.579 37.08 214.806 37.1733 214.993 37.36C215.179 37.5467 215.273 37.7733 215.273 38.04V41C215.273 41.2933 215.179 41.5333 214.993 41.72C214.806 41.9067 214.579 42 214.313 42H210.833ZM224.882 42.4C223.469 42.4 222.202 42.1333 221.082 41.6C219.962 41.04 219.069 40.2933 218.402 39.36C217.736 38.4267 217.402 37.3867 217.402 36.24C217.402 34.3467 218.162 32.8533 219.682 31.76C221.229 30.6667 223.256 29.92 225.762 29.52L231.002 28.76V28.04C231.002 27 230.762 26.2 230.282 25.64C229.802 25.08 228.962 24.8 227.762 24.8C226.882 24.8 226.176 24.9733 225.642 25.32C225.109 25.6667 224.696 26.12 224.402 26.68C224.189 27.0267 223.882 27.2 223.482 27.2H219.682C219.389 27.2 219.162 27.12 219.002 26.96C218.842 26.7733 218.776 26.56 218.802 26.32C218.802 25.8667 218.976 25.3333 219.322 24.72C219.669 24.1067 220.202 23.5067 220.922 22.92C221.642 22.3067 222.562 21.8 223.682 21.4C224.802 21 226.176 20.8 227.802 20.8C229.482 20.8 230.922 21 232.122 21.4C233.322 21.8 234.282 22.36 235.002 23.08C235.722 23.8 236.256 24.64 236.602 25.6C236.949 26.5333 237.122 27.5467 237.122 28.64V41C237.122 41.2933 237.029 41.5333 236.842 41.72C236.656 41.9067 236.416 42 236.122 42H232.202C231.936 42 231.709 41.9067 231.522 41.72C231.336 41.5333 231.242 41.2933 231.242 41V39.52C230.896 40.0267 230.429 40.5067 229.842 40.96C229.256 41.3867 228.549 41.7333 227.722 42C226.922 42.2667 225.976 42.4 224.882 42.4ZM226.482 38.24C227.362 38.24 228.149 38.0533 228.842 37.68C229.536 37.3067 230.082 36.7333 230.482 35.96C230.882 35.1867 231.082 34.2133 231.082 33.04V32.36L227.362 32.96C225.922 33.2 224.869 33.56 224.202 34.04C223.536 34.52 223.202 35.1067 223.202 35.8C223.202 36.3067 223.349 36.7467 223.642 37.12C223.962 37.4933 224.376 37.7733 224.882 37.96C225.389 38.1467 225.922 38.24 226.482 38.24ZM242.965 42C242.672 42 242.432 41.9067 242.245 41.72C242.059 41.5333 241.965 41.2933 241.965 41V14.6C241.965 14.3067 242.059 14.0667 242.245 13.88C242.432 13.6933 242.672 13.6 242.965 13.6H246.965C247.232 13.6 247.459 13.6933 247.645 13.88C247.832 14.0667 247.925 14.3067 247.925 14.6V41C247.925 41.2933 247.832 41.5333 247.645 41.72C247.459 41.9067 247.232 42 246.965 42H242.965Z" fill="#111111"></path><path d="M126.96 85C126.667 85 126.427 84.9067 126.24 84.72C126.053 84.5333 125.96 84.2933 125.96 84V58C125.96 57.7067 126.053 57.4667 126.24 57.28C126.427 57.0933 126.667 57 126.96 57H138.84C141.053 57 142.867 57.32 144.28 57.96C145.693 58.6 146.733 59.5067 147.4 60.68C148.093 61.8533 148.44 63.2267 148.44 64.8C148.44 65.7867 148.253 66.6533 147.88 67.4C147.533 68.1467 147.093 68.76 146.56 69.24C146.053 69.72 145.56 70.08 145.08 70.32C146.12 70.8 147.027 71.6 147.8 72.72C148.6 73.8133 149 75.12 149 76.64C149 78.32 148.627 79.7867 147.88 81.04C147.133 82.2933 146.027 83.2667 144.56 83.96C143.093 84.6533 141.307 85 139.2 85H126.96ZM132.32 80.32H138.44C139.747 80.32 140.733 79.96 141.4 79.24C142.067 78.4933 142.4 77.6133 142.4 76.6C142.4 75.56 142.053 74.6933 141.36 74C140.693 73.28 139.72 72.92 138.44 72.92H132.32V80.32ZM132.32 68.32H138.08C139.333 68.32 140.267 68.0133 140.88 67.4C141.52 66.76 141.84 65.9467 141.84 64.96C141.84 63.9733 141.52 63.1867 140.88 62.6C140.267 61.9867 139.333 61.68 138.08 61.68H132.32V68.32ZM160.973 85.4C159.426 85.4 158.053 85.0533 156.853 84.36C155.679 83.64 154.759 82.6133 154.093 81.28C153.453 79.92 153.133 78.28 153.133 76.36V65.2C153.133 64.9067 153.226 64.6667 153.413 64.48C153.599 64.2933 153.826 64.2 154.093 64.2H158.333C158.626 64.2 158.866 64.2933 159.053 64.48C159.239 64.6667 159.333 64.9067 159.333 65.2V76.12C159.333 79.1067 160.639 80.6 163.253 80.6C164.506 80.6 165.493 80.2133 166.213 79.44C166.959 78.64 167.333 77.5333 167.333 76.12V65.2C167.333 64.9067 167.426 64.6667 167.613 64.48C167.799 64.2933 168.039 64.2 168.333 64.2H172.573C172.839 64.2 173.066 64.2933 173.253 64.48C173.439 64.6667 173.533 64.9067 173.533 65.2V84C173.533 84.2933 173.439 84.5333 173.253 84.72C173.066 84.9067 172.839 85 172.573 85H168.653C168.359 85 168.119 84.9067 167.933 84.72C167.746 84.5333 167.653 84.2933 167.653 84V82.44C166.959 83.4 166.066 84.1333 164.973 84.64C163.879 85.1467 162.546 85.4 160.973 85.4ZM186.767 85.4C185.114 85.4 183.687 85.2133 182.487 84.84C181.314 84.44 180.354 83.96 179.607 83.4C178.887 82.84 178.34 82.28 177.967 81.72C177.62 81.1333 177.434 80.64 177.407 80.24C177.38 79.9467 177.474 79.7067 177.687 79.52C177.9 79.3333 178.114 79.24 178.327 79.24H182.207C182.287 79.24 182.367 79.2533 182.447 79.28C182.527 79.3067 182.607 79.3733 182.687 79.48C183.034 79.72 183.394 80 183.767 80.32C184.14 80.6133 184.567 80.8667 185.047 81.08C185.554 81.2933 186.18 81.4 186.927 81.4C187.807 81.4 188.554 81.2267 189.167 80.88C189.78 80.5067 190.087 79.9867 190.087 79.32C190.087 78.84 189.94 78.44 189.647 78.12C189.38 77.8 188.86 77.5067 188.087 77.24C187.314 76.9733 186.167 76.68 184.647 76.36C183.207 76.04 181.98 75.6133 180.967 75.08C179.954 74.5467 179.194 73.88 178.687 73.08C178.18 72.2533 177.927 71.2667 177.927 70.12C177.927 69.08 178.247 68.08 178.887 67.12C179.554 66.16 180.527 65.3733 181.807 64.76C183.087 64.12 184.687 63.8 186.607 63.8C188.074 63.8 189.354 63.9867 190.447 64.36C191.567 64.7067 192.5 65.16 193.247 65.72C193.994 66.2533 194.554 66.8133 194.927 67.4C195.327 67.96 195.54 68.4533 195.567 68.88C195.594 69.1467 195.514 69.3733 195.327 69.56C195.14 69.7467 194.927 69.84 194.687 69.84H191.127C190.994 69.84 190.874 69.8267 190.767 69.8C190.66 69.7467 190.567 69.68 190.487 69.6C190.167 69.3867 189.834 69.1467 189.487 68.88C189.167 68.5867 188.78 68.3333 188.327 68.12C187.874 67.9067 187.287 67.8 186.567 67.8C185.687 67.8 185.007 68 184.527 68.4C184.074 68.7733 183.847 69.2533 183.847 69.84C183.847 70.2133 183.967 70.56 184.207 70.88C184.447 71.2 184.94 71.4933 185.687 71.76C186.434 72.0267 187.567 72.3067 189.087 72.6C190.9 72.92 192.34 73.4 193.407 74.04C194.474 74.68 195.234 75.4267 195.687 76.28C196.167 77.1067 196.407 78 196.407 78.96C196.407 80.2133 196.034 81.3333 195.287 82.32C194.54 83.28 193.447 84.04 192.007 84.6C190.594 85.1333 188.847 85.4 186.767 85.4ZM201.207 85C200.94 85 200.713 84.9067 200.527 84.72C200.34 84.5333 200.247 84.2933 200.247 84V65.2C200.247 64.9067 200.34 64.6667 200.527 64.48C200.713 64.2933 200.94 64.2 201.207 64.2H205.207C205.5 64.2 205.74 64.2933 205.927 64.48C206.113 64.6667 206.207 64.9067 206.207 65.2V84C206.207 84.2933 206.113 84.5333 205.927 84.72C205.74 84.9067 205.5 85 205.207 85H201.207ZM201.087 61C200.82 61 200.593 60.9067 200.407 60.72C200.22 60.5333 200.127 60.2933 200.127 60V56.8C200.127 56.5067 200.22 56.2667 200.407 56.08C200.593 55.8667 200.82 55.76 201.087 55.76H205.287C205.58 55.76 205.82 55.8667 206.007 56.08C206.22 56.2667 206.327 56.5067 206.327 56.8V60C206.327 60.2933 206.22 60.5333 206.007 60.72C205.82 60.9067 205.58 61 205.287 61H201.087ZM213.199 85C212.932 85 212.705 84.9067 212.519 84.72C212.332 84.5333 212.239 84.2933 212.239 84V65.2C212.239 64.9067 212.332 64.6667 212.519 64.48C212.705 64.2933 212.932 64.2 213.199 64.2H217.119C217.412 64.2 217.652 64.2933 217.839 64.48C218.025 64.6667 218.119 64.9067 218.119 65.2V66.76C218.812 65.9067 219.705 65.2 220.799 64.64C221.892 64.08 223.225 63.8 224.799 63.8C226.372 63.8 227.745 64.16 228.919 64.88C230.119 65.5733 231.052 66.6 231.719 67.96C232.412 69.2933 232.759 70.92 232.759 72.84V84C232.759 84.2933 232.652 84.5333 232.439 84.72C232.252 84.9067 232.025 85 231.759 85H227.519C227.225 85 226.985 84.9067 226.799 84.72C226.612 84.5333 226.519 84.2933 226.519 84V73.08C226.519 71.6667 226.172 70.5733 225.479 69.8C224.812 69 223.825 68.6 222.519 68.6C221.265 68.6 220.265 69 219.519 69.8C218.772 70.5733 218.399 71.6667 218.399 73.08V84C218.399 84.2933 218.305 84.5333 218.119 84.72C217.932 84.9067 217.705 85 217.439 85H213.199ZM246.831 85.4C243.765 85.4 241.325 84.5467 239.511 82.84C237.725 81.1333 236.778 78.6533 236.671 75.4C236.671 75.1867 236.671 74.9067 236.671 74.56C236.671 74.1867 236.671 73.8933 236.671 73.68C236.778 71.6267 237.245 69.8667 238.071 68.4C238.898 66.9067 240.058 65.7733 241.551 65C243.045 64.2 244.791 63.8 246.791 63.8C249.031 63.8 250.898 64.2667 252.391 65.2C253.911 66.1067 255.045 67.36 255.791 68.96C256.565 70.5333 256.951 72.3467 256.951 74.4V75.32C256.951 75.5867 256.845 75.8133 256.631 76C256.445 76.1867 256.218 76.28 255.951 76.28H242.871C242.871 76.3067 242.871 76.36 242.871 76.44C242.871 76.4933 242.871 76.5467 242.871 76.6C242.898 77.4533 243.058 78.24 243.351 78.96C243.671 79.6533 244.111 80.2133 244.671 80.64C245.258 81.0667 245.951 81.28 246.751 81.28C247.418 81.28 247.965 81.1867 248.391 81C248.818 80.8133 249.165 80.5867 249.431 80.32C249.725 80.0533 249.938 79.8267 250.071 79.64C250.311 79.3733 250.498 79.2133 250.631 79.16C250.791 79.08 251.031 79.04 251.351 79.04H255.511C255.778 79.04 255.991 79.12 256.151 79.28C256.338 79.4133 256.418 79.6133 256.391 79.88C256.365 80.3067 256.138 80.84 255.711 81.48C255.311 82.0933 254.711 82.7067 253.911 83.32C253.111 83.9067 252.111 84.4 250.911 84.8C249.738 85.2 248.378 85.4 246.831 85.4ZM242.871 72.64H250.711V72.56C250.711 71.6 250.551 70.7733 250.231 70.08C249.938 69.36 249.498 68.8 248.911 68.4C248.325 68 247.618 67.8 246.791 67.8C245.965 67.8 245.258 68 244.671 68.4C244.085 68.8 243.631 69.36 243.311 70.08C243.018 70.7733 242.871 71.6 242.871 72.56V72.64ZM269.15 85.4C267.496 85.4 266.07 85.2133 264.87 84.84C263.696 84.44 262.736 83.96 261.99 83.4C261.27 82.84 260.723 82.28 260.35 81.72C260.003 81.1333 259.816 80.64 259.79 80.24C259.763 79.9467 259.856 79.7067 260.07 79.52C260.283 79.3333 260.496 79.24 260.71 79.24H264.59C264.67 79.24 264.75 79.2533 264.83 79.28C264.91 79.3067 264.99 79.3733 265.07 79.48C265.416 79.72 265.776 80 266.15 80.32C266.523 80.6133 266.95 80.8667 267.43 81.08C267.936 81.2933 268.563 81.4 269.31 81.4C270.19 81.4 270.936 81.2267 271.55 80.88C272.163 80.5067 272.47 79.9867 272.47 79.32C272.47 78.84 272.323 78.44 272.03 78.12C271.763 77.8 271.243 77.5067 270.47 77.24C269.696 76.9733 268.55 76.68 267.03 76.36C265.59 76.04 264.363 75.6133 263.35 75.08C262.336 74.5467 261.576 73.88 261.07 73.08C260.563 72.2533 260.31 71.2667 260.31 70.12C260.31 69.08 260.63 68.08 261.27 67.12C261.936 66.16 262.91 65.3733 264.19 64.76C265.47 64.12 267.07 63.8 268.99 63.8C270.456 63.8 271.736 63.9867 272.83 64.36C273.95 64.7067 274.883 65.16 275.63 65.72C276.376 66.2533 276.936 66.8133 277.31 67.4C277.71 67.96 277.923 68.4533 277.95 68.88C277.976 69.1467 277.896 69.3733 277.71 69.56C277.523 69.7467 277.31 69.84 277.07 69.84H273.51C273.376 69.84 273.256 69.8267 273.15 69.8C273.043 69.7467 272.95 69.68 272.87 69.6C272.55 69.3867 272.216 69.1467 271.87 68.88C271.55 68.5867 271.163 68.3333 270.71 68.12C270.256 67.9067 269.67 67.8 268.95 67.8C268.07 67.8 267.39 68 266.91 68.4C266.456 68.7733 266.23 69.2533 266.23 69.84C266.23 70.2133 266.35 70.56 266.59 70.88C266.83 71.2 267.323 71.4933 268.07 71.76C268.816 72.0267 269.95 72.3067 271.47 72.6C273.283 72.92 274.723 73.4 275.79 74.04C276.856 74.68 277.616 75.4267 278.07 76.28C278.55 77.1067 278.79 78 278.79 78.96C278.79 80.2133 278.416 81.3333 277.67 82.32C276.923 83.28 275.83 84.04 274.39 84.6C272.976 85.1333 271.23 85.4 269.15 85.4ZM290.829 85.4C289.176 85.4 287.749 85.2133 286.549 84.84C285.376 84.44 284.416 83.96 283.669 83.4C282.949 82.84 282.403 82.28 282.029 81.72C281.683 81.1333 281.496 80.64 281.469 80.24C281.443 79.9467 281.536 79.7067 281.749 79.52C281.963 79.3333 282.176 79.24 282.389 79.24H286.269C286.349 79.24 286.429 79.2533 286.509 79.28C286.589 79.3067 286.669 79.3733 286.749 79.48C287.096 79.72 287.456 80 287.829 80.32C288.203 80.6133 288.629 80.8667 289.109 81.08C289.616 81.2933 290.243 81.4 290.989 81.4C291.869 81.4 292.616 81.2267 293.229 80.88C293.843 80.5067 294.149 79.9867 294.149 79.32C294.149 78.84 294.003 78.44 293.709 78.12C293.443 77.8 292.923 77.5067 292.149 77.24C291.376 76.9733 290.229 76.68 288.709 76.36C287.269 76.04 286.043 75.6133 285.029 75.08C284.016 74.5467 283.256 73.88 282.749 73.08C282.243 72.2533 281.989 71.2667 281.989 70.12C281.989 69.08 282.309 68.08 282.949 67.12C283.616 66.16 284.589 65.3733 285.869 64.76C287.149 64.12 288.749 63.8 290.669 63.8C292.136 63.8 293.416 63.9867 294.509 64.36C295.629 64.7067 296.563 65.16 297.309 65.72C298.056 66.2533 298.616 66.8133 298.989 67.4C299.389 67.96 299.603 68.4533 299.629 68.88C299.656 69.1467 299.576 69.3733 299.389 69.56C299.203 69.7467 298.989 69.84 298.749 69.84H295.189C295.056 69.84 294.936 69.8267 294.829 69.8C294.723 69.7467 294.629 69.68 294.549 69.6C294.229 69.3867 293.896 69.1467 293.549 68.88C293.229 68.5867 292.843 68.3333 292.389 68.12C291.936 67.9067 291.349 67.8 290.629 67.8C289.749 67.8 289.069 68 288.589 68.4C288.136 68.7733 287.909 69.2533 287.909 69.84C287.909 70.2133 288.029 70.56 288.269 70.88C288.509 71.2 289.003 71.4933 289.749 71.76C290.496 72.0267 291.629 72.3067 293.149 72.6C294.963 72.92 296.403 73.4 297.469 74.04C298.536 74.68 299.296 75.4267 299.749 76.28C300.229 77.1067 300.469 78 300.469 78.96C300.469 80.2133 300.096 81.3333 299.349 82.32C298.603 83.28 297.509 84.04 296.069 84.6C294.656 85.1333 292.909 85.4 290.829 85.4Z" fill="#111111"></path><path d="M100 50C100 63.8144 94.3814 76.2887 85.3608 85.3608C76.2887 94.3814 63.8144 100 50 100H36.5979C35.1546 100 34.0206 98.866 34.0206 97.4227V85.567C34.0206 84.1237 35.1546 82.9897 36.5979 82.9897H50C59.1237 82.9897 67.3711 79.2784 73.3505 73.3505C79.2784 67.3711 82.9897 59.1237 82.9897 50C82.9897 31.8041 68.1959 17.0103 50 17.0103H19.5876C18.1443 17.0103 17.0103 18.1443 17.0103 19.5876V63.4021C17.0103 64.8454 15.8763 65.9794 14.433 65.9794H2.57732C1.13402 65.9794 0 64.8454 0 63.4021V2.57732C0 1.13402 1.13402 0 2.57732 0H50C77.6289 0 100 22.3711 100 50Z" fill="#0035F2"></path><path d="M34.0206 68.5568V80.4125C34.0206 81.8558 32.8865 82.9898 31.4432 82.9898H19.5876C18.1443 82.9898 17.0103 81.8558 17.0103 80.4125V68.5568C17.0103 67.1135 18.1443 65.9795 19.5876 65.9795H31.4432C32.8865 65.9795 34.0206 67.1135 34.0206 68.5568Z" fill="#0035F2"></path></svg> 